<svg width="159" height="100" viewBox="0 0 159 100" fill="none" xmlns="http://www.w3.org/2000/svg">
<path d="M78.0182 0.914809C77.3977 0.930489 76.7817 0.983689 76.1702 1.07441C75.263 1.16513 74.3558 1.62041 73.3562 2.07401C72.0845 2.61833 70.811 3.16433 69.63 3.25505C67.6308 3.89009 66.9957 4.79897 66.4514 5.52473C66.4514 5.61545 66.3607 5.70617 66.3607 5.70617C65.6333 7.15937 65.5425 8.61257 65.8147 10.0658C66.0869 10.9747 66.4497 11.7945 66.7219 12.611C67.3603 14.338 67.9953 15.971 68.2675 17.8795C68.5413 18.4255 68.8118 19.1512 68.9933 19.8787C69.4469 21.3319 69.9038 22.9665 71.2663 24.2383L71.2764 24.2332C71.3049 24.2651 71.3268 24.3004 71.357 24.329L71.3923 24.3122L71.3587 23.3311C72.4473 21.6947 73.9896 20.6044 76.1702 20.1508C77.0438 19.966 77.9863 19.8988 78.9641 19.9358C79.9819 19.9636 80.9942 20.0964 81.9847 20.3323C84.4375 20.9673 86.3443 22.2407 86.4367 23.3311C86.4821 23.9258 86.5039 24.4987 86.4905 25.0715C86.4893 25.1791 86.4854 25.2871 86.4787 25.3958L86.7072 25.51C86.8447 25.4305 86.9629 25.3215 87.0533 25.1908L87.0583 25.1858L87.0684 25.1723C87.1356 25.0816 87.1944 24.964 87.2532 24.8464C87.2868 24.7843 87.317 24.7019 87.3473 24.6297C87.6917 23.8535 87.9554 22.6927 88.2511 21.3318C88.3418 20.8782 88.4359 20.5137 88.5249 20.1508C89.2524 18.5162 90.2503 17.063 91.2499 15.6988C92.8845 13.4308 94.4285 11.3392 94.247 8.88641C91.2499 3.07193 87.0701 2.16305 84.8894 1.70945C84.5265 1.61873 84.3468 1.61873 84.0746 1.52801C81.8268 1.11809 79.8847 0.862729 78.0182 0.914809ZM86.4905 25.0715C86.4996 24.5205 86.4817 23.9694 86.4367 23.4201C86.346 22.2391 84.4375 20.9673 81.894 20.3323C80.9317 20.1097 79.9509 19.977 78.9641 19.9358C78.0879 19.907 77.2113 19.9791 76.3517 20.1508C74.2617 20.6044 72.6288 21.6964 71.6292 23.3294L71.7149 25.7335C72.8354 25.1371 74.6263 24.2651 76.9901 24.0535C77.0993 24.0451 77.2185 24.0451 77.3328 24.0383C77.5293 24.0165 77.7797 23.9644 78.0787 23.9644C80.7785 23.9644 83.5689 24.8615 86.2721 26.7331C86.3359 26.2716 86.3751 25.8107 86.3897 25.3504L86.4653 25.3891C86.4686 25.2832 86.4888 25.1757 86.4905 25.0699V25.0715ZM78.0165 1.00553C78.2249 0.998809 78.4433 1.02233 78.6533 1.02401C78.2669 1.02065 77.8821 1.02961 77.4991 1.05089C77.6721 1.04081 77.8435 1.01057 78.0165 1.00553ZM76.6457 1.12649C76.518 1.14161 76.3886 1.14833 76.2609 1.16681C74.8884 1.36337 73.2806 2.34449 71.6409 2.92241C72.2373 2.70065 72.8405 2.42513 73.4469 2.16641C74.3541 1.71281 75.3537 1.25753 76.1702 1.16681C76.3281 1.14329 76.4877 1.14497 76.6457 1.12649ZM76.2609 1.52969C76.5331 1.52969 76.8977 1.52969 77.1698 1.62041C76.9659 1.57394 76.7551 1.56597 76.5482 1.59689C76.7295 1.61085 76.9081 1.64928 77.0791 1.71113C78.0535 3.39113 76.3634 10.5798 75.9384 15.4014C76.1608 16.9307 76.4201 18.4543 76.7162 19.9711C75.5352 16.9739 74.3541 11.7038 74.171 7.61633C74.0803 5.98169 74.1727 4.52681 74.5373 3.43817C74.8985 2.34449 75.4445 1.61873 76.2593 1.52801L76.2609 1.52969ZM81.5294 1.98329C80.1686 5.52809 79.9872 12.2481 79.8965 14.338C79.8057 15.2452 79.8965 17.2444 79.9872 18.6976C79.9872 19.0605 80.0779 19.4234 80.0779 19.7879C80.0779 19.4234 79.9872 19.1512 79.9872 18.7883C79.2597 13.3384 78.3509 6.79817 81.5294 1.98329ZM87.1608 2.62169C86.7072 6.25385 84.8004 7.98089 84.1653 11.5257C83.9839 14.3414 83.6193 17.6107 83.5286 20.4263C83.4379 17.6107 83.5286 14.6135 83.9822 11.6147C84.4358 8.52689 85.4354 5.43737 87.1608 2.62169ZM70.0752 3.68009C70.4499 3.67653 70.8113 3.81869 71.0832 4.07657L71.0597 4.06481C71.2831 4.21937 71.5065 4.41593 71.7199 4.70993C71.3772 6.33617 72.1483 9.80369 71.7871 12.5555C71.9148 15.1562 71.9064 17.8979 73.2134 20.0467C71.567 17.5099 71.2377 14.2725 70.9925 11.2502C70.8026 9.41897 70.6497 7.72721 70.2129 6.37313C69.971 5.86073 69.761 5.40713 69.5678 4.99217C69.5275 4.93001 69.4939 4.85945 69.4502 4.80065C69.2854 4.62975 69.1886 4.40452 69.1781 4.16729C69.1781 4.07657 69.2671 3.89513 69.3595 3.89513C69.4502 3.80441 69.63 3.80105 69.7207 3.71033C69.8369 3.68785 69.9568 3.67771 70.0752 3.68009ZM67.8105 4.70993C67.7097 4.74353 67.656 4.77881 67.5753 4.81241C67.8727 4.75529 68.1835 4.86953 68.4489 5.34665C68.1331 6.84521 69.1814 11.0066 69.168 13.9214C69.6938 17.026 70.092 20.3894 71.8089 22.5146C69.8097 20.2449 68.9933 16.2482 68.3582 12.8865C67.8122 10.2523 67.3569 7.98089 66.4497 7.25513C66.359 7.07369 66.2683 6.98129 66.2683 6.79985C66.2683 6.52769 66.2683 6.16313 66.4497 5.80025C65.9844 6.86537 65.7693 7.92881 65.8281 8.99393C65.7591 7.89375 65.9731 6.79422 66.4497 5.80025C66.4497 5.70953 66.5405 5.70953 66.5405 5.61881C66.5606 5.59193 66.5925 5.56001 66.6144 5.53313C66.7122 5.36625 66.8411 5.21968 66.9941 5.10137C67.0865 4.99889 67.1553 4.89977 67.2612 4.79561C67.1721 4.88969 67.1133 4.98041 67.0361 5.07281C67.0814 5.04257 67.1234 5.01065 67.1772 4.98545C67.2572 4.89726 67.355 4.82708 67.4642 4.77958C67.5734 4.73208 67.6915 4.70834 67.8105 4.70993ZM67.1772 4.98545C67.1705 4.99721 67.1637 5.00225 67.157 5.01569L67.2192 4.96529L67.1772 4.98545ZM91.974 6.89057L91.9656 6.91577C92.0294 6.90737 92.0916 6.88721 92.1554 6.89057C92.0933 6.88721 92.0277 6.90737 91.9622 6.92417C90.5124 11.3627 88.7921 15.8013 87.0717 20.2399L87.0684 20.2449C86.9222 21.0261 86.6753 21.73 86.1612 22.2441C86.8886 21.4259 86.9777 20.2432 87.0684 18.79C87.1591 17.4275 87.1591 15.9743 87.8865 14.5195C87.8865 14.4304 87.8882 14.3431 87.9756 14.2523L87.9773 14.249C88.1402 13.6559 88.3166 13.0915 88.5098 12.5387C89.2121 10.3715 90.425 7.21985 91.8917 6.92753C91.9185 6.91745 91.9488 6.89561 91.9757 6.89057M73.1748 28.1409L72.6305 28.3223C72.9026 28.6869 73.0841 28.9607 73.2655 29.0498C73.4593 29.1624 73.6782 29.2248 73.9022 29.2312C73.9929 29.2312 74.1727 29.2312 74.2634 29.1405L75.6276 28.6869C75.7183 28.6869 75.809 28.5962 75.8997 28.5962C76.0812 28.5962 76.1719 28.5962 76.3533 28.6869L76.8086 29.1405L77.2622 29.0498C77.0808 28.7776 76.8086 28.5071 76.6272 28.4164C76.4457 28.3257 76.2626 28.2316 75.9905 28.2316H75.809L74.3541 28.7776H74.0837C73.9005 28.7776 73.7208 28.7776 73.6301 28.6869C73.5393 28.5962 73.3562 28.4147 73.1748 28.1409ZM68.8135 29.0498C68.3599 29.3219 67.7232 29.7772 66.8143 30.1401C65.9054 30.503 65.1797 30.8675 64.8151 31.2304C64.4533 31.5933 64.2725 31.9567 64.2725 32.3207C64.2725 32.5022 64.3632 32.5946 64.5446 32.6853C64.6353 32.776 64.8185 32.776 64.9092 32.8667C66.1762 33.4166 67.4183 34.022 68.6321 34.6811C68.8152 34.7719 68.9966 34.955 69.089 35.0457C69.1797 35.1364 69.2688 35.1364 69.3595 35.1364C69.5426 35.1364 69.8131 35.0474 69.9945 34.8643C70.176 34.6828 70.2673 34.5008 70.2684 34.3183C70.2684 34.1368 70.176 34.0478 69.9945 33.9571C69.9945 33.9571 69.2671 33.5925 67.9953 33.0482C67.3121 32.7521 66.6458 32.4184 65.9995 32.0486C66.2717 31.595 66.816 31.2304 67.6341 30.8675C68.5413 30.5047 69.1797 30.1401 69.4502 29.8679C69.5409 29.7772 69.5409 29.6865 69.5409 29.5958C69.5196 29.4584 69.4562 29.331 69.3595 29.2312C69.2347 29.1186 69.0739 29.0543 68.9059 29.0498H68.8135ZM87.7085 29.0498C87.5717 29.0714 87.445 29.1348 87.3456 29.2312C87.2549 29.4127 87.1625 29.5051 87.1625 29.5958V29.6865C87.4346 29.9587 87.8009 30.1401 88.3452 30.3215C88.7988 30.4123 89.2524 30.5954 89.7077 30.6861C90.252 30.8675 90.6154 31.1397 90.798 31.5026V31.595C90.798 31.6857 90.6149 31.8671 90.252 32.0486C90.0705 32.1393 89.706 32.4131 89.2524 32.776C88.7988 33.0482 88.5249 33.3187 88.2528 33.4094C87.8899 33.5925 87.6177 33.7739 87.527 33.9571C87.4363 34.0478 87.4363 34.1368 87.4363 34.2275C87.4363 34.409 87.527 34.409 87.6177 34.5904C87.7085 34.7719 87.8899 34.7752 87.9806 34.7752C88.0713 34.7752 88.1621 34.6811 88.2528 34.6811C88.7064 34.409 89.3448 34.0461 90.0705 33.4094C90.887 32.7743 91.5237 32.3207 91.8883 32.0486C92.2512 31.8671 92.4309 31.684 92.4309 31.4102C92.4309 31.3211 92.4309 31.1397 92.2495 31.049C91.6145 30.3215 90.7073 29.8696 89.6169 29.5051C89.4355 29.4143 89.1633 29.3219 88.6173 29.2312C88.3452 29.1405 88.0713 29.0498 87.8899 29.0498H87.7085ZM82.7121 30.4106C82.2585 30.4106 81.894 30.5047 81.6218 30.7768C81.2589 31.049 81.1682 31.5026 81.2589 32.0486C81.2589 32.5022 81.4404 32.8651 81.7125 33.2296C81.9847 33.5942 82.3493 33.7756 82.7121 33.7756C82.9843 33.7756 83.1657 33.6815 83.4396 33.5908C83.8932 33.3187 84.0763 32.8651 84.0763 32.0486C84.0763 31.4119 83.8932 30.9583 83.621 30.6878C83.3555 30.5007 83.0368 30.4024 82.7121 30.4106ZM75.1723 30.503C74.7187 30.503 74.3558 30.5954 74.0837 30.8675C73.7191 31.1397 73.6301 31.5933 73.7208 32.1393C73.7208 32.5929 73.9005 32.9558 74.1744 33.3187C74.4482 33.6815 74.8094 33.8663 75.1723 33.8663C75.4461 33.8663 75.6276 33.7723 75.8997 33.6815C76.3533 33.4094 76.5348 32.9558 76.5348 32.1393C76.5348 31.4119 76.3533 30.9583 76.0812 30.7785C75.8161 30.5918 75.4981 30.4952 75.174 30.503H75.1723ZM75.1723 31.595C75.4461 31.595 75.6276 31.7764 75.6276 32.0486C75.6276 32.3207 75.3537 32.5022 75.174 32.5022C74.9001 32.5022 74.7204 32.3207 74.7204 32.0486C74.7204 31.7764 74.9001 31.595 75.174 31.595M82.5324 31.6857C82.8045 31.6857 82.9877 31.8655 82.9877 32.1393C82.9877 32.3207 82.8045 32.5929 82.5341 32.5929C82.2602 32.5929 82.0805 32.4115 82.0805 32.1393C82.0805 31.8671 82.2585 31.6857 82.5324 31.6857ZM77.993 35.2271L78.2652 35.7715C78.3587 35.9432 78.4815 36.0973 78.6281 36.2267C78.7188 36.3175 78.9019 36.4989 79.0817 36.4989H79.2648C79.4462 36.4989 79.5353 36.4989 79.626 36.4082C79.7167 36.3175 79.9015 36.3175 79.9922 36.2267L80.2627 35.9546C80.3534 35.8639 80.4441 35.7715 80.4441 35.6807C80.5349 35.59 80.5349 35.4993 80.6256 35.4086C80.6256 35.3179 80.7163 35.2271 80.7163 35.2271C80.6256 35.4086 80.4441 35.59 80.3534 35.7715C80.172 35.8622 80.0829 36.0453 79.8998 36.0453C79.7201 36.136 79.5369 36.136 79.3555 36.136C79.1741 36.136 78.9926 36.136 78.9019 36.0453C78.7205 36.0453 78.6281 35.9546 78.5373 35.8639L78.2652 35.59C78.1745 35.4993 78.0837 35.3179 77.993 35.2271ZM76.5381 36.9542C74.6297 36.9542 73.4503 39.4977 70.7253 37.2263C69.9996 41.6783 75.3588 42.0412 77.6301 40.1327C79.1757 38.7719 78.7188 36.8635 76.5381 36.9542ZM81.353 36.9542C79.1741 36.8635 78.7188 38.7719 80.2644 40.1344C82.5341 42.0412 87.8916 41.6767 87.1658 37.2263C84.4409 39.4977 83.3522 36.9542 81.353 36.9542Z" fill="black"/>
<path d="M11.2773 75.7622C10.097 75.5543 9.00462 75.1838 8.00028 74.6508C6.99594 74.1177 6.20915 73.4448 5.63992 72.6322C5.09947 71.8246 4.92052 70.9027 5.10306 69.8663C5.29068 68.8011 5.92117 67.9178 6.99453 67.2164C8.09669 66.52 9.51143 66.324 11.2388 66.6282C13.0525 66.9477 14.6919 67.6668 16.157 68.7857C17.656 69.8808 19.2287 71.0631 20.875 72.3326C22.6594 71.1331 24.3117 69.6729 25.8318 67.9519C27.3857 66.2072 28.8998 64.3517 30.3741 62.3852C31.8772 60.4238 33.4065 58.4818 34.962 56.5594C36.5227 54.6081 38.1994 52.8405 39.9921 51.2566C40.307 50.9856 40.6219 50.7146 40.9368 50.4435C41.2567 50.1437 41.5885 49.8608 41.9322 49.5948C40.5399 48.3998 38.9943 47.4003 37.2956 46.5965C35.602 45.764 33.8051 45.1803 31.9051 44.8457C29.5444 44.4299 27.3032 44.3468 25.1815 44.5964C23.0598 44.846 21.1592 45.3572 19.4796 46.1299C17.8339 46.8789 16.4795 47.8276 15.4164 48.9761C14.3585 50.0957 13.7103 51.3321 13.472 52.6852C13.259 53.8943 13.3262 54.945 13.6737 55.8373C14.055 56.7059 14.6013 57.3958 15.3127 57.9069C16.0241 58.4181 16.754 58.7396 17.5025 58.8714C18.5101 59.0489 19.4068 59.0139 20.1924 58.7664C20.9831 58.4901 21.6595 58.1047 22.2215 57.61C22.7836 57.1154 23.2279 56.6148 23.5545 56.1084C23.8812 55.602 24.0893 55.1786 24.179 54.8382C24.2145 54.6367 24.3618 54.5587 24.6209 54.6044C25.0239 54.6754 25.1392 54.9479 24.9666 55.4221C24.6198 56.5483 24.0105 57.4799 23.1387 58.2168C22.2719 58.9249 21.2916 59.4349 20.1978 59.7469C19.1091 60.03 18.0321 60.0778 16.9669 59.8902C15.7002 59.6671 14.5892 59.2339 13.6339 58.5907C12.6837 57.9188 11.9756 57.052 11.5096 55.9904C11.0774 54.9051 10.9856 53.6571 11.2341 52.2465C11.5637 50.3752 12.3616 48.7942 13.6278 47.5034C14.8991 46.1839 16.504 45.1606 18.4427 44.4335C20.3814 43.7064 22.536 43.2697 24.9067 43.1233C27.2774 42.9769 29.7294 43.1268 32.2628 43.573C34.2205 43.9178 36.1494 44.5098 38.0496 45.3491C39.9549 46.1596 41.7164 47.1971 43.3339 48.4615C44.2295 47.7585 45.1217 47.1587 46.0106 46.6623C46.9333 46.1421 47.8425 45.7828 48.7382 45.5844C49.1378 45.5064 49.4528 45.4876 49.6831 45.5282C49.8558 45.5586 49.9346 45.617 49.9194 45.7034C49.894 45.8473 49.4996 46.1489 48.736 46.608C48.3009 46.8876 47.7609 47.3416 47.1159 47.97C46.476 48.5697 45.809 49.2388 45.115 49.9773C46.6446 51.4043 47.9295 53.0405 48.9699 54.886C50.044 56.7077 50.7898 58.709 51.2071 60.8899C51.6294 63.042 51.6226 65.356 51.1865 67.8319C50.7605 70.2501 49.9704 72.2926 48.8161 73.9592C47.6668 75.5971 46.2685 76.8794 44.6212 77.8062C42.9738 78.733 41.1638 79.3195 39.1911 79.5657C37.2134 79.8407 35.1881 79.7956 33.1153 79.4305C30.6682 78.9995 28.4522 78.2679 26.4673 77.2356C24.5111 76.2083 22.7141 75.1201 21.0762 73.9708C19.4678 74.8451 17.85 75.4358 16.2228 75.7428C14.6243 76.0549 12.9758 76.0614 11.2773 75.7622ZM41.3647 54.0807C40.5928 54.9243 39.6457 56.0041 38.5234 57.3202C37.4062 58.6075 36.1655 60.0067 34.8011 61.5176C33.4367 63.0285 32.0292 64.5318 30.5785 66.0275C29.1278 67.5233 27.6804 68.9157 26.2364 70.2048C24.8262 71.4702 23.4854 72.5104 22.2139 73.3253C23.6079 74.3426 25.178 75.2869 26.9241 76.1584C28.6703 77.03 30.7093 77.6711 33.0412 78.0818C35.6898 78.5483 38.0892 78.407 40.2395 77.6578C42.3949 76.8798 44.187 75.6372 45.6156 73.9298C47.0493 72.1936 47.9791 70.1164 48.4051 67.6982C48.9578 64.5602 48.7976 61.5934 47.9246 58.798C47.0567 55.9737 45.6665 53.5027 43.754 51.385C43.2733 51.9236 42.8264 52.4385 42.4134 52.9297C42.0054 53.3922 41.6559 53.7758 41.3647 54.0807ZM11.5131 74.4236C12.9661 74.7685 14.4368 74.7604 15.9251 74.3992C17.4474 74.0144 18.7325 73.5432 19.7805 72.9857C18.2002 71.8466 16.7368 70.8023 15.3902 69.8527C14.0725 68.9083 12.7947 68.327 11.5567 68.109C10.5491 67.9315 9.7186 68.0969 9.06512 68.6051C8.41672 69.0845 8.02914 69.6841 7.90237 70.4038C7.74011 71.3251 7.9656 72.1514 8.57883 72.8827C9.22086 73.6191 10.1989 74.1327 11.5131 74.4236Z" fill="black"/>
<path d="M56.0241 80.3603C54.9455 80.2801 53.9949 79.8577 53.1724 79.093C52.379 78.3305 52.0354 77.2351 52.1416 75.8067C52.2305 74.6115 52.5872 73.3629 53.2116 72.0609C53.8652 70.7611 54.6726 69.5607 55.6338 68.4597C56.6264 67.3316 57.6891 66.4433 58.8219 65.7947C59.986 65.1192 61.1219 64.8226 62.2297 64.9049C62.7835 64.9461 63.3109 65.1465 63.8118 65.5062C64.3127 65.8659 64.5339 66.4393 64.4754 67.2264C64.4212 67.9552 64.0846 68.7362 63.4657 69.5696C62.8468 70.403 61.999 71.1607 60.9224 71.8428C60.4613 72.1309 59.8846 72.3958 59.1925 72.6375C58.5003 72.8792 57.8114 73.0771 57.1257 73.2313C56.4423 73.3564 55.8819 73.4026 55.4446 73.3701C55.2728 73.7091 55.0924 74.1647 54.9033 74.7369C54.7433 75.3113 54.6406 75.9045 54.5951 76.5167C54.5409 77.2455 54.6379 77.9122 54.8861 78.5169C55.1342 79.1217 55.6518 79.4533 56.4389 79.5118C57.4009 79.5833 58.3107 79.3725 59.1681 78.8793C60.0547 78.3883 60.85 77.7439 61.5542 76.9462C62.2876 76.1506 62.92 75.3329 63.4514 74.4931C63.9829 73.6532 64.4025 72.9369 64.7104 72.3443C65.0602 72.3703 65.2254 72.5145 65.2059 72.7768C64.7662 73.5649 64.2628 74.4215 63.6957 75.3467C63.1578 76.274 62.5221 77.1354 61.7888 77.931C61.0868 78.6995 60.2487 79.326 59.2747 79.8106C58.332 80.2681 57.2485 80.4514 56.0241 80.3603ZM55.8092 72.6058C56.2173 72.6361 56.9132 72.5413 57.8969 72.3213C58.8828 72.0722 59.7941 71.6416 60.6311 71.0297C61.4389 70.4155 62.0761 69.7301 62.5427 68.9734C63.0115 68.1875 63.2665 67.5176 63.3077 66.9637C63.3554 66.3224 63.146 65.9843 62.6796 65.9497C62.3298 65.9237 61.8315 66.1211 61.1846 66.542C60.5377 66.9629 59.7213 67.6937 58.7352 68.7342C58.1293 69.3927 57.5482 70.1116 56.992 70.891C56.4357 71.6704 56.0414 72.242 55.8092 72.6058Z" fill="black"/>
<path d="M68.1855 80.9771C67.1046 80.9401 66.3121 80.5913 65.8082 79.9306C65.3345 79.2417 65.1132 78.4444 65.1441 77.5387C65.1761 76.6039 65.3405 75.6443 65.6374 74.6599C65.9343 73.6756 66.1964 72.851 66.4239 72.186C66.9472 70.566 67.591 68.8476 68.355 67.0311C69.1493 65.1863 70.0005 63.3873 70.9086 61.6341C71.847 59.8527 72.7642 58.2608 73.6604 56.8582C74.3713 55.7418 75.116 54.919 75.8946 54.3899C76.7033 53.8325 77.3999 53.5639 77.9842 53.5838C78.4516 53.5998 78.8108 53.7876 79.0618 54.1471C79.3429 54.4785 79.472 54.9801 79.4491 55.6521C79.4331 56.1195 79.3265 56.6716 79.1292 57.3083C78.9612 57.9461 78.6733 58.6675 78.2655 59.4725C77.1651 61.7163 75.8602 63.9532 74.3508 66.183C72.8706 68.4138 71.0156 70.4856 68.7858 72.3984C68.4073 73.2044 68.0852 74.0709 67.8195 74.9977C67.5538 75.9246 67.411 76.6802 67.3911 77.2645C67.3291 79.0759 67.9117 80.0025 69.1387 80.0444C70.0736 80.0764 71.1337 79.4399 72.319 78.1349C73.5053 76.8008 74.6502 74.9679 75.7536 72.6365C75.8704 72.6405 75.9863 72.6737 76.1012 72.7361C76.217 72.7693 76.272 72.8736 76.266 73.0489C75.9176 73.8267 75.4787 74.6891 74.9491 75.6363C74.4497 76.5552 73.8642 77.4273 73.1925 78.2525C72.55 79.0788 71.8103 79.7555 70.9733 80.2826C70.1373 80.7805 69.208 81.012 68.1855 80.9771ZM69.1843 71.008C70.273 69.963 71.338 68.7563 72.3792 67.3879C73.4214 65.9904 74.3921 64.5465 75.2913 63.0562C76.2206 61.5378 77.0009 60.102 77.6322 58.7489C77.8516 58.3176 78.0288 57.8411 78.1636 57.3192C78.3277 56.7983 78.4157 56.3626 78.4277 56.012C78.4416 55.603 78.3464 55.395 78.1419 55.388C78.025 55.384 77.8457 55.4949 77.604 55.7206C77.3633 55.9172 77.0441 56.2719 76.6463 56.7847C76.0663 57.4962 75.4188 58.4685 74.7039 59.7018C74.0183 60.936 73.315 62.2575 72.5941 63.666C71.8733 65.0746 71.2123 66.4413 70.6113 67.7663C70.0113 69.062 69.5356 70.1426 69.1843 71.008Z" fill="black"/>
<path d="M78.4703 81.0242C77.3887 81.0242 76.6287 80.7173 76.1902 80.1034C75.7517 79.4603 75.5325 78.7295 75.5325 77.911C75.5325 77.4725 75.5763 77.0341 75.664 76.5956C75.7809 76.1279 75.9125 75.704 76.0587 75.324L78.9965 67.826C79.0842 67.5921 79.128 67.3875 79.128 67.2121C79.128 66.9198 79.0549 66.6713 78.9088 66.4667C78.7626 66.2328 78.6603 66.0721 78.6018 65.9844L81.0135 65.8967C81.452 65.8674 81.7589 65.9259 81.9343 66.0721C82.1389 66.189 82.2412 66.3351 82.2412 66.5105C82.2412 66.6859 82.1389 67.0075 81.9343 67.4752C81.642 68.1768 81.2473 69.0537 80.7504 70.1061C80.2534 71.1584 79.7565 72.24 79.2596 73.3508C78.7918 74.4616 78.3826 75.4994 78.0318 76.464C77.7103 77.4287 77.5495 78.1741 77.5495 78.7003C77.5495 79.0803 77.6372 79.4019 77.8126 79.6649C78.0172 79.928 78.3534 80.0596 78.8211 80.0596C79.435 80.0596 80.0342 79.8257 80.6188 79.358C81.2327 78.8611 81.8027 78.2326 82.3289 77.4725C82.8551 76.7125 83.3374 75.894 83.7759 75.0171C84.2436 74.1401 84.6382 73.3216 84.9598 72.5616C85.3106 72.5616 85.486 72.6931 85.486 72.9562C85.1937 73.687 84.8136 74.5201 84.3459 75.4555C83.8782 76.391 83.3374 77.2825 82.7236 78.1303C82.1389 78.9488 81.4812 79.6357 80.7504 80.1911C80.0488 80.7465 79.2888 81.0242 78.4703 81.0242ZM82.3728 63.1781C81.9928 63.1781 81.6566 63.0319 81.3643 62.7396C81.1012 62.4473 80.9696 62.0965 80.9696 61.6873C80.9696 61.1903 81.1743 60.7518 81.5835 60.3718C81.9928 59.9626 82.4458 59.7579 82.9428 59.7579C83.352 59.7579 83.7028 59.8895 83.9951 60.1526C84.2875 60.4157 84.4336 60.7518 84.4336 61.1611C84.4336 61.6873 84.229 62.155 83.8198 62.5642C83.4105 62.9735 82.9282 63.1781 82.3728 63.1781Z" fill="black"/>
<path d="M94.5406 80.9233C93.719 80.8723 93.0336 80.5957 92.4844 80.0936C91.9339 79.5623 91.5255 78.9369 91.2592 78.2173C90.9929 77.4977 90.846 76.8312 90.8185 76.218C90.7662 75.0499 90.9871 74.1036 91.4814 73.3792C91.9743 72.6256 92.4392 72.2244 92.8759 72.1755C93.3444 72.1838 93.9093 72.0561 94.5705 71.7924C95.2304 71.4995 95.7988 71.1229 96.2756 70.6626C97.0924 69.953 97.4851 69.2478 97.4537 68.5469C97.421 67.8168 96.9812 67.4708 96.1343 67.5087C95.6671 67.5296 95.0756 67.7171 94.3599 68.071C93.6735 68.4236 92.8806 69.0151 91.9815 69.8454C90.8578 70.8907 89.7054 72.2737 88.5243 73.9945C88.3661 74.382 88.1872 74.9606 87.9876 75.7303C87.7866 76.4708 87.6162 77.2393 87.4763 78.0356C87.3656 78.8306 87.3227 79.5055 87.3476 80.0604C87.3672 80.4984 87.4533 80.7872 87.6058 80.9267L84.8462 81.0503C84.5249 81.0647 84.3584 80.9404 84.3467 80.6776C84.3427 80.59 84.3541 80.5164 84.3807 80.4566C84.4072 80.3969 84.4312 80.2788 84.4526 80.1023C84.7934 78.5654 85.2151 77.2005 85.7176 76.0076C86.2493 74.8133 86.6854 73.7696 87.0258 72.8765C86.7669 72.9759 86.6202 72.9678 86.5858 72.8523C86.55 72.7076 86.5302 72.5915 86.5263 72.5039C86.7098 72.0275 87.0122 71.2678 87.4337 70.2247C87.883 69.1512 88.3989 67.9284 88.9811 66.5563C89.5913 65.1537 90.2427 63.6907 90.9353 62.1673C91.6278 60.644 92.323 59.179 93.0208 57.7725C93.7173 56.3367 94.286 55.3164 94.7271 54.7114C95.1974 54.1051 95.783 53.7863 96.4838 53.7549C96.7467 53.7431 97.0553 53.7732 97.4096 53.8451C97.7932 53.9157 98.1297 53.9152 98.4191 53.8437C97.8015 54.4274 97.0442 55.4854 96.1472 57.018C95.2489 58.5213 94.3033 60.2754 93.3105 62.2804C92.3176 64.2854 91.3705 66.3322 90.4692 68.4209C90.2034 69.018 89.9534 69.6437 89.7193 70.2979C89.4853 70.9521 89.2659 71.6057 89.061 72.2586C89.6403 71.4719 90.3058 70.652 91.0577 69.799C91.8095 68.946 92.5938 68.1647 93.4106 67.4552C94.2553 66.715 95.0939 66.1654 95.9264 65.8062C96.8744 65.4126 97.6696 65.2015 98.3121 65.1727C98.9837 65.1426 99.4728 65.2816 99.7792 65.5898C100.115 65.8966 100.294 66.2982 100.316 66.7947C100.341 67.3495 100.152 68.031 99.7492 68.8391C99.3451 69.618 98.7759 70.3019 98.0415 70.8907C97.4187 71.3576 96.764 71.7673 96.0775 72.1199C95.391 72.4725 94.5679 72.7142 93.6082 72.845C93.4513 73.2617 93.3388 73.691 93.2708 74.133C93.2307 74.5444 93.2198 74.9546 93.2382 75.3634C93.2892 76.5023 93.5971 77.4981 94.162 78.3506C94.7256 79.1739 95.4308 79.5666 96.2777 79.5287C96.6866 79.5104 97.1194 79.3739 97.5761 79.1194C98.0621 78.8635 98.5555 78.4464 99.0563 77.868C99.6142 77.2578 100.162 76.4286 100.701 75.3803C101.238 74.3028 101.769 73.1086 102.296 71.7975C102.646 71.7818 102.827 71.9053 102.839 72.1682C101.902 74.7559 100.964 76.6853 100.026 77.9563C99.0879 79.2272 98.1596 80.0589 97.2408 80.4512C96.3499 80.813 95.4498 80.9703 94.5406 80.9233Z" fill="black"/>
<path d="M113.921 79.1307C113.252 79.1995 112.637 79.0718 112.074 78.7476C111.541 78.4204 111.215 77.6752 111.095 76.5121C111.044 76.0178 111.025 75.5495 111.039 75.1073C111.081 74.6622 111.135 74.1865 111.2 73.6802C110.984 74.1433 110.675 74.7186 110.276 75.4062C109.876 76.0938 109.417 76.7728 108.899 77.4433C108.409 78.1107 107.88 78.6794 107.311 79.1493C106.771 79.6162 106.24 79.8766 105.716 79.9304C104.96 80.0082 104.315 79.7366 103.781 79.1156C103.244 78.4656 102.919 77.5881 102.805 76.4831C102.682 75.2909 102.827 73.983 103.239 72.5595C103.651 71.136 104.272 69.7497 105.103 68.4006C105.934 67.0515 106.935 65.9201 108.104 65.0064C109.274 64.0927 110.542 63.5656 111.909 63.425C112.578 63.3562 113.229 63.4067 113.864 63.5766C114.496 63.7173 115.069 64.0109 115.585 64.4574C115.81 64.64 115.936 64.8622 115.963 65.1239C115.981 65.2984 115.923 65.4512 115.789 65.5825C115.656 65.7138 115.47 65.7623 115.231 65.728C114.807 64.7432 114.071 64.3046 113.024 64.4123C112.53 64.4631 111.979 64.6814 111.372 65.067C110.629 65.5549 109.853 66.2959 109.045 67.29C108.262 68.2521 107.536 69.3405 106.868 70.5553C106.225 71.7381 105.715 72.9219 105.338 74.1068C104.96 75.2917 104.819 76.3494 104.915 77.28C105.013 78.2396 105.426 78.682 106.153 78.6072C106.793 78.5414 107.416 78.1688 108.022 77.4894C108.657 76.8069 109.233 75.9836 109.751 75.0194C110.295 74.023 110.783 73.0473 111.213 72.092C111.644 71.1367 111.976 70.3679 112.21 69.7855C112.566 68.9555 112.906 68.2594 113.23 67.6971C113.554 67.1348 114.065 66.8177 114.763 66.746C115.083 66.7131 115.407 66.7238 115.736 66.7781C116.065 66.8325 116.401 66.8126 116.744 66.7186C115.961 67.6806 115.297 68.7922 114.75 70.0532C114.233 71.3112 113.86 72.5397 113.631 73.7388C113.399 74.9087 113.323 75.8863 113.403 76.6714C113.493 77.5437 113.829 77.95 114.41 77.8902C114.876 77.8424 115.343 77.5298 115.813 76.9526C116.311 76.3723 116.767 75.6642 117.181 74.8283C117.621 73.9602 118.017 73.0967 118.369 72.2376C118.719 71.3495 118.993 70.5866 119.192 69.9491C119.337 69.9341 119.455 69.9367 119.545 69.9568C119.664 69.9739 119.735 70.0842 119.756 70.2878C119.738 70.4071 119.694 70.5439 119.621 70.6983C119.575 70.8206 119.496 71.0491 119.383 71.384C119.199 71.8731 118.943 72.5312 118.617 73.3582C118.29 74.1852 117.893 75.0342 117.424 75.9052C116.952 76.7472 116.425 77.4773 115.842 78.0956C115.259 78.7139 114.619 79.0589 113.921 79.1307Z" fill="black"/>
<path d="M122.834 77.9815C121.65 78.1651 120.626 77.9539 119.763 77.3481C118.925 76.709 118.443 75.985 118.317 75.1761C118.214 74.5117 118.294 73.8782 118.555 73.2756C118.784 72.6487 119.172 72.2926 119.721 72.2076L119.751 72.1142C120.207 70.8603 120.633 69.5963 121.027 68.3224C121.446 67.0152 121.911 65.6267 122.423 64.1571C122.855 62.9365 123.361 61.9114 123.943 61.0818C124.553 60.2477 125.335 59.7568 126.288 59.6091C126.519 59.5733 126.846 59.5818 127.268 59.6347C127.686 59.6587 127.92 59.8296 127.969 60.1473C128.005 60.3784 127.893 60.5141 127.633 60.5544C127.43 60.5857 127.19 60.5638 126.912 60.4885C126.663 60.4088 126.467 60.3801 126.322 60.4025C125.773 60.4875 125.361 60.8769 125.083 61.5706C124.806 62.2643 124.724 62.9723 124.836 63.6945C124.957 64.4744 125.196 65.162 125.555 65.7572C125.909 66.3236 126.304 66.8688 126.74 67.3928C127.176 67.9168 127.571 68.462 127.925 69.0284C128.275 69.5658 128.503 70.1812 128.611 70.8745C128.825 72.2611 128.726 73.4302 128.311 74.3819C127.921 75.3002 127.326 76.0431 126.527 76.6107L126.57 76.604C128.101 76.3668 129.248 75.4643 130.011 73.8967C130.798 72.2956 131.504 70.2635 132.128 67.8004C132.474 67.7466 132.668 67.8498 132.708 68.1098C132.361 69.4947 131.951 70.8598 131.479 72.2049C131.007 73.55 130.386 74.6963 129.616 75.644C128.846 76.5916 127.811 77.1661 126.511 77.3675C125.962 77.4525 125.447 77.4731 124.967 77.4292C124.325 77.6766 123.614 77.8607 122.834 77.9815ZM121.473 73.4892C121.58 74.1825 121.842 74.8223 122.258 75.4085C122.674 75.9948 123.326 76.3819 124.213 76.5699C124.897 76.0202 125.372 75.2663 125.637 74.3081C125.927 73.3166 125.996 72.3297 125.844 71.3475C125.719 70.5387 125.505 69.7288 125.201 68.918C124.898 68.1071 124.583 67.3129 124.255 66.5354C123.957 65.7534 123.758 65.0447 123.66 64.4091C123.628 64.2069 123.601 64.0336 123.579 63.8892C123.581 63.7114 123.585 63.548 123.592 63.3991C123.193 64.2596 122.799 65.2524 122.412 66.3774C122.053 67.4979 121.702 68.5728 121.358 69.6022C121.015 70.6316 120.688 71.4809 120.378 72.1502C120.969 72.1474 121.334 72.5937 121.473 73.4892ZM120.378 75.8773C120.45 76.3395 120.672 76.7193 121.043 77.0167C121.414 77.3141 121.918 77.4136 122.554 77.3151C122.842 77.2703 123.112 77.1989 123.363 77.1009C122.699 76.8193 122.134 76.4188 121.669 75.8992C121.232 75.3752 120.956 74.7377 120.84 73.9866C120.625 74.3157 120.484 74.6482 120.417 74.9838C120.347 75.2906 120.334 75.5884 120.378 75.8773Z" fill="black"/>
<path d="M136.271 75.7011C135.096 75.9374 134.064 75.7723 133.175 75.2057C132.308 74.6047 131.794 73.903 131.633 73.1006C131.5 72.4414 131.551 71.805 131.786 71.1913C131.986 70.5548 132.358 70.1817 132.902 70.0722L132.928 69.9776C133.328 68.7045 133.696 67.4227 134.033 66.1325C134.393 64.8078 134.796 63.3999 135.241 61.9089C135.618 60.6702 136.078 59.6234 136.622 58.7686C137.194 57.9081 137.953 57.3827 138.899 57.1925C139.128 57.1463 139.455 57.1402 139.879 57.1742C140.298 57.1795 140.539 57.3397 140.602 57.6549C140.648 57.8842 140.543 58.0248 140.285 58.0767C140.084 58.117 139.843 58.1058 139.562 58.0431C139.31 57.9745 139.112 57.9547 138.969 57.9835C138.424 58.093 138.029 58.5005 137.783 59.2059C137.538 59.9113 137.487 60.6223 137.631 61.3387C137.787 62.1125 138.057 62.7887 138.442 63.3673C138.821 63.9172 139.24 64.4442 139.699 64.9482C140.158 65.4521 140.577 65.9791 140.956 66.529C141.329 67.0503 141.585 67.6549 141.723 68.3427C142 69.7182 141.953 70.8907 141.581 71.8599C141.232 72.7948 140.671 73.5636 139.898 74.1664L139.941 74.1577C141.46 73.8522 142.565 72.8994 143.257 71.2991C143.972 69.6645 144.586 67.6028 145.099 65.1142C145.443 65.045 145.641 65.1394 145.693 65.3973C145.408 66.7965 145.06 68.1785 144.648 69.5433C144.237 70.9082 143.668 72.0812 142.941 73.0623C142.214 74.0435 141.206 74.6637 139.916 74.9231C139.372 75.0326 138.859 75.0762 138.377 75.0538C137.747 75.3297 137.045 75.5454 136.271 75.7011ZM134.71 71.2741C134.848 71.9619 135.138 72.5893 135.58 73.1564C136.022 73.7235 136.691 74.0811 137.585 74.2291C138.244 73.6494 138.684 72.875 138.907 71.9059C139.152 70.9023 139.177 69.9134 138.981 68.939C138.819 68.1366 138.569 67.3371 138.23 66.5406C137.891 65.7441 137.54 64.9649 137.178 64.2028C136.845 63.4349 136.615 62.7358 136.488 62.1053C136.448 61.9047 136.413 61.7328 136.384 61.5895C136.378 61.4118 136.375 61.2484 136.375 61.0993C136.015 61.9768 135.666 62.9862 135.329 64.1274C135.021 65.2629 134.719 66.3524 134.422 67.3962C134.125 68.4399 133.836 69.303 133.556 69.9855C134.146 69.9562 134.531 70.3857 134.71 71.2741ZM133.723 73.7088C133.816 74.1673 134.054 74.5368 134.438 74.8173C134.823 75.0978 135.33 75.1747 135.961 75.0478C136.247 74.9902 136.514 74.9068 136.76 74.7976C136.083 74.5461 135.501 74.1712 135.013 73.673C134.554 73.169 134.25 72.5445 134.1 71.7994C133.899 72.1378 133.774 72.4762 133.722 72.8145C133.665 73.1241 133.666 73.4222 133.723 73.7088Z" fill="black"/>
<path d="M149.854 72.5682C148.803 72.8219 147.992 72.7018 147.422 72.2079C146.845 71.6856 146.46 71.0266 146.268 70.2309C146.165 69.8047 146.105 69.3682 146.087 68.9213C146.091 68.4393 146.12 67.9964 146.173 67.5927L147.27 59.6147C147.3 59.3668 147.295 59.1576 147.254 58.9871C147.185 58.703 147.056 58.4786 146.866 58.3139C146.669 58.1209 146.531 57.9886 146.454 57.9171L148.778 57.2661C149.197 57.1348 149.509 57.1197 149.714 57.2206C149.94 57.2863 150.074 57.4044 150.115 57.5749C150.156 57.7454 150.132 58.0819 150.043 58.5846C149.924 59.3352 149.746 60.2802 149.509 61.4198C149.273 62.5593 149.044 63.7273 148.821 64.9237C148.627 66.1132 148.473 67.218 148.358 68.2381C148.272 69.2512 148.29 70.0136 148.414 70.525C148.503 70.8945 148.664 71.1865 148.896 71.4011C149.157 71.6088 149.514 71.6578 149.969 71.5481C150.566 71.4041 151.093 71.0362 151.552 70.4444C152.032 69.8173 152.439 69.0727 152.772 68.2104C153.105 67.3482 153.382 66.4394 153.603 65.484C153.852 64.5218 154.043 63.6336 154.177 62.8193C154.518 62.7371 154.72 62.8238 154.782 63.0795C154.669 63.8585 154.495 64.7575 154.26 65.7766C154.024 66.7956 153.708 67.7892 153.31 68.7572C152.934 69.69 152.455 70.5121 151.875 71.2234C151.323 71.9279 150.65 72.3762 149.854 72.5682ZM149.461 54.3045C149.092 54.3937 148.731 54.3305 148.378 54.1149C148.054 53.8924 147.844 53.5823 147.748 53.1844C147.631 52.7014 147.727 52.2271 148.036 51.7617C148.338 51.2679 148.73 50.9627 149.213 50.8461C149.611 50.7501 149.983 50.7957 150.329 50.9829C150.675 51.17 150.896 51.4626 150.992 51.8604C151.115 52.3719 151.026 52.8745 150.724 53.3684C150.422 53.8622 150.001 54.1743 149.461 54.3045Z" fill="black"/>
<path d="M12.4853 75.7067C11.3226 75.5008 10.2467 75.1347 9.25776 74.6085C8.26878 74.0823 7.49427 73.4186 6.93424 72.6175C6.40256 71.8213 6.22715 70.9128 6.40801 69.8919C6.59389 68.8426 7.21592 67.973 8.2741 67.283C9.36064 66.598 10.7547 66.4063 12.4562 66.7077C14.2428 67.0242 15.8572 67.7343 17.2996 68.838C18.7754 69.9184 20.3237 71.0848 21.9445 72.3371C23.7037 71.1571 25.3329 69.72 26.8322 68.026C28.3649 66.3086 29.8584 64.4819 31.3128 62.546C32.7956 60.615 34.3042 58.7032 35.8386 56.8107C37.3781 54.8898 39.0318 53.15 40.7996 51.5912C41.1101 51.3245 41.4205 51.0578 41.731 50.791C42.0465 50.496 42.3737 50.2176 42.7126 49.9559C41.342 48.7771 39.8203 47.7909 38.1474 46.9974C36.4796 46.1754 34.7099 45.5987 32.8383 45.2671C30.5129 44.8552 28.3049 44.7711 26.2143 45.015C24.1237 45.2589 22.2506 45.7606 20.5952 46.5203C18.973 47.2567 17.6378 48.19 16.5893 49.3205C15.5458 50.4226 14.9061 51.64 14.67 52.9729C14.459 54.1639 14.5242 55.1992 14.8656 56.0786C15.2404 56.9347 15.778 57.6149 16.4784 58.1192C17.1787 58.6235 17.8976 58.941 18.6349 59.0716C19.6275 59.2474 20.5109 59.2138 21.2851 58.9708C22.0644 58.6993 22.7312 58.3202 23.2854 57.8334C23.8396 57.3466 24.2779 56.8539 24.6002 56.3553C24.9225 55.8567 25.128 55.4398 25.2166 55.1045C25.2518 54.906 25.397 54.8293 25.6522 54.8745C26.0492 54.9449 26.1625 55.2135 25.992 55.6806C25.6493 56.7898 25.0481 57.707 24.1884 58.4321C23.3337 59.1289 22.3674 59.6305 21.2895 59.9367C20.2166 60.2146 19.1555 60.2606 18.1062 60.0748C16.8584 59.8537 15.7643 59.4259 14.8238 58.7913C13.8883 58.1284 13.1915 57.2737 12.7334 56.2274C12.3086 55.1577 12.2194 53.9281 12.4655 52.5385C12.7921 50.6952 13.5797 49.1383 14.8285 47.8679C16.0823 46.5691 17.6645 45.5624 19.5752 44.848C21.486 44.1335 23.6092 43.7053 25.945 43.5634C28.2807 43.4214 30.6964 43.5715 33.1919 44.0136C35.1203 44.3552 37.0202 44.9404 38.8915 45.7691C40.7678 46.5695 42.5022 47.5933 44.0947 48.8406C44.9777 48.1489 45.8573 47.5589 46.7335 47.0706C47.6431 46.559 48.5392 46.2059 49.4219 46.0113C49.8157 45.9348 50.126 45.9167 50.3529 45.9569C50.523 45.987 50.6006 46.0446 50.5855 46.1297C50.5604 46.2715 50.1714 46.5682 49.4187 47.0198C48.9898 47.2948 48.4573 47.7416 47.8212 48.3601C47.1902 48.9503 46.5325 49.6089 45.848 50.3358C47.3535 51.7432 48.6179 53.3565 49.6411 55.1757C50.6976 56.9715 51.4304 58.9439 51.8394 61.093C52.2534 63.2138 52.2444 65.4936 51.8123 67.9324C51.3903 70.3145 50.6099 72.326 49.471 73.9669C48.3371 75.5794 46.9583 76.8414 45.3344 77.753C43.7105 78.6645 41.9266 79.2405 39.9829 79.4812C38.0341 79.7501 36.0388 79.7038 33.9969 79.3421C31.5865 78.9151 29.4039 78.1921 27.4493 77.1731C25.523 76.1591 23.7536 75.0852 22.1411 73.9513C20.5556 74.8112 18.9611 75.3915 17.3577 75.6924C15.7825 75.9984 14.1584 76.0031 12.4853 75.7067ZM42.1491 54.3749C41.3878 55.2052 40.4536 56.2682 39.3467 57.5638C38.2447 58.831 37.0209 60.2082 35.6753 61.6955C34.3296 63.1828 32.9414 64.6625 31.5107 66.1347C30.0799 67.6069 28.6526 68.9773 27.2287 70.246C25.8381 71.4913 24.5161 72.5148 23.2627 73.3164C24.635 74.32 26.181 75.252 27.9005 76.1123C29.6199 76.9726 31.6282 77.6063 33.9252 78.0132C36.5342 78.4754 38.8984 78.3385 41.0176 77.6025C43.1419 76.8381 44.9087 75.6155 46.3179 73.9348C47.7321 72.2257 48.6502 70.18 49.0722 67.7979C49.6198 64.7069 49.4649 61.7838 48.6075 59.0288C47.7551 56.2455 46.3879 53.8096 44.5057 51.7213C44.0315 52.2515 43.5908 52.7584 43.1834 53.242C42.781 53.6971 42.4362 54.0748 42.1491 54.3749ZM12.7189 74.3881C14.1501 74.7294 15.599 74.7228 17.0657 74.3684C18.5658 73.9907 19.8324 73.5277 20.8655 72.9795C19.3097 71.8557 17.8689 70.8254 16.5432 69.8886C15.2458 68.9568 13.9874 68.3829 12.768 68.1669C11.7755 67.991 10.9571 68.1532 10.3127 68.6532C9.67346 69.1249 9.29102 69.7153 9.16542 70.4242C9.00466 71.3317 9.22601 72.146 9.82948 72.8671C10.4613 73.5933 11.4244 74.1003 12.7189 74.3881Z" fill="black"/>
<path d="M56.6025 80.2821C55.5399 80.2019 54.6039 79.7846 53.7944 79.0302C53.0137 78.2781 52.6764 77.1984 52.7827 75.7912C52.8717 74.6138 53.2245 73.3841 53.8412 72.1021C54.4867 70.8223 55.2836 69.6405 56.2319 68.5569C57.2111 67.4467 58.2591 66.5728 59.3759 65.9351C60.5236 65.2708 61.6431 64.98 62.7344 65.0624C63.28 65.1036 63.7994 65.3017 64.2925 65.6566C64.7855 66.0116 65.0028 66.5768 64.9442 67.3522C64.89 68.0701 64.5575 68.8392 63.9467 69.6596C63.336 70.4799 62.4999 71.2254 61.4383 71.8962C60.9837 72.1795 60.4153 72.4399 59.7331 72.6771C59.0509 72.9144 58.3719 73.1086 57.6962 73.2598C57.0227 73.3822 56.4705 73.4271 56.0397 73.3946C55.8701 73.7283 55.6918 74.177 55.5048 74.7405C55.3466 75.3062 55.2447 75.8906 55.1991 76.4937C55.1449 77.2116 55.2396 77.8686 55.4834 78.4647C55.7272 79.0607 56.2368 79.388 57.0122 79.4466C57.9599 79.5182 58.8564 79.3116 59.7018 78.8267C60.5758 78.3439 61.3602 77.71 62.0549 76.9249C62.7783 76.142 63.4023 75.3371 63.9269 74.5103C64.4515 73.6834 64.8658 72.9782 65.1698 72.3947C65.5144 72.4207 65.677 72.563 65.6574 72.8214C65.2234 73.5973 64.7264 74.4407 64.1666 75.3515C63.6355 76.2645 63.0083 77.1125 62.2848 77.8954C61.5923 78.6518 60.7659 79.2681 59.8057 79.7443C58.8764 80.194 57.8087 80.3732 56.6025 80.2821ZM56.3998 72.642C56.8019 72.6723 57.4876 72.5797 58.457 72.3641C59.4286 72.1198 60.327 71.6967 61.1523 71.0948C61.9489 70.4906 62.5775 69.8161 63.0381 69.0711C63.5009 68.2973 63.7529 67.6376 63.7941 67.092C63.8419 66.4602 63.636 66.1269 63.1765 66.0922C62.8319 66.0662 62.3407 66.2601 61.7029 66.6741C61.0651 67.088 60.2598 67.807 59.2871 68.831C58.6894 69.479 58.1161 70.1867 57.5671 70.9539C57.0182 71.7211 56.6291 72.2838 56.3998 72.642Z" fill="black"/>
<path d="M68.44 80.8952C67.3751 80.8576 66.5948 80.5131 66.0991 79.8616C65.6332 79.1823 65.416 78.3965 65.4475 77.5043C65.48 76.5833 65.6431 75.638 65.9367 74.6686C66.2303 73.6992 66.4895 72.887 66.7144 72.2321C67.2318 70.6366 67.8679 68.9444 68.6227 67.1555C69.4074 65.3389 70.248 63.5675 71.1447 61.8412C72.0712 60.0872 72.9767 58.5198 73.8612 57.139C74.5628 56.0399 75.2975 55.2301 76.0651 54.7097C76.8626 54.1615 77.5491 53.8975 78.1247 53.9179C78.5853 53.9341 78.9389 54.1195 79.1858 54.4741C79.4624 54.8008 79.589 55.2952 79.5657 55.9572C79.5494 56.4177 79.4437 56.9615 79.2487 57.5886C79.0824 58.2168 78.7979 58.9272 78.3953 59.7198C77.3086 61.9293 76.0205 64.1316 74.5309 66.3268C73.0701 68.523 71.2401 70.562 69.0411 72.444C68.6673 73.2377 68.349 74.091 68.0862 75.0039C67.8234 75.9168 67.6818 76.661 67.6615 77.2367C67.5985 79.0212 68.1714 79.9348 69.3802 79.9775C70.3013 80.01 71.3464 79.3841 72.5157 78.0998C73.6859 76.7866 74.8159 74.9822 75.9057 72.6864C76.0208 72.6905 76.1349 72.7234 76.248 72.785C76.3621 72.8178 76.4161 72.9206 76.41 73.0933C76.066 73.8592 75.6325 74.7085 75.1097 75.641C74.6166 76.5458 74.0388 77.4043 73.3761 78.2166C72.7422 79.0299 72.0126 79.6958 71.1874 80.2142C70.3632 80.7038 69.4474 80.9308 68.44 80.8952ZM69.4353 71.0746C70.5091 70.0463 71.5597 68.8587 72.587 67.5117C73.6155 66.1359 74.5734 64.7145 75.461 63.2473C76.3783 61.7523 77.1487 60.3386 77.7721 59.0062C77.9888 58.5816 78.1639 58.1123 78.2973 57.5983C78.4595 57.0853 78.5467 56.6561 78.5589 56.3107C78.5732 55.9077 78.4796 55.7027 78.2781 55.6956C78.163 55.6915 77.9862 55.8006 77.7478 56.0227C77.5104 56.216 77.1955 56.5651 76.8031 57.07C76.2308 57.7702 75.5918 58.7275 74.8861 59.9417C74.2092 61.157 73.5148 62.4581 72.803 63.845C72.0912 65.232 71.4385 66.5778 70.8449 67.8824C70.2523 69.1583 69.7824 70.2224 69.4353 71.0746Z" fill="black"/>
<path d="M78.7538 80.9561C77.6882 80.9554 76.9396 80.6526 76.508 80.0475C76.0764 79.4137 75.8608 78.6935 75.8613 77.8871C75.8615 77.4551 75.905 77.0232 75.9916 76.5912C76.1071 76.1305 76.237 75.713 76.3812 75.3386L79.28 67.9532C79.3666 67.7228 79.4099 67.5213 79.41 67.3485C79.4102 67.0605 79.3383 66.8156 79.1944 66.6139C79.0506 66.3834 78.9499 66.225 78.8923 66.1385L81.2684 66.0536C81.7004 66.025 82.0027 66.0828 82.1755 66.2269C82.377 66.3422 82.4777 66.4863 82.4776 66.6591C82.4775 66.8319 82.3765 67.1486 82.1746 67.6093C81.8862 68.3003 81.4969 69.1641 81.0067 70.2006C80.5165 71.2371 80.0262 72.3024 79.536 73.3965C79.0745 74.4907 78.6707 75.5128 78.3245 76.463C78.0072 77.4132 77.8483 78.1475 77.848 78.6659C77.8478 79.0403 77.934 79.3572 78.1066 79.6165C78.3081 79.8758 78.6392 80.0056 79.1 80.0059C79.7048 80.0062 80.2953 79.7762 80.8716 79.3157C81.4767 78.8265 82.0387 78.2076 82.5575 77.4591C83.0764 76.7107 83.5521 75.9045 83.9846 75.0408C84.4459 74.1771 84.8352 73.3709 85.1524 72.6223C85.498 72.6225 85.6707 72.7522 85.6706 73.0114C85.3822 73.7312 85.0073 74.5518 84.5459 75.4731C84.0846 76.3945 83.5512 77.2725 82.9459 78.1074C82.3695 78.9134 81.7211 79.5898 81.0007 80.1366C80.3092 80.6834 79.5602 80.9566 78.7538 80.9561ZM82.6092 63.376C82.2348 63.3757 81.9036 63.2316 81.6158 62.9434C81.3568 62.6552 81.2274 62.3095 81.2276 61.9063C81.2279 61.4167 81.4298 60.9849 81.8332 60.6107C82.2367 60.2077 82.6832 60.0064 83.1728 60.0067C83.576 60.007 83.9215 60.1368 84.2093 60.3961C84.4972 60.6555 84.641 60.9868 84.6407 61.39C84.6404 61.9084 84.4386 62.3691 84.0351 62.772C83.6317 63.175 83.1564 63.3763 82.6092 63.376Z" fill="black"/>
<path d="M94.7515 80.86C93.942 80.8098 93.2667 80.5375 92.7256 80.0428C92.1832 79.5194 91.7807 78.9033 91.5183 78.1943C91.2558 77.4854 91.111 76.8288 91.0838 76.2246C91.0322 75.0738 91.2498 74.1415 91.7366 73.4277C92.2222 72.6852 92.6801 72.2899 93.1104 72.2417C93.572 72.2498 94.1285 72.1239 94.7799 71.864C95.43 71.5754 95.9899 71.2043 96.4597 70.7507C97.2643 70.0515 97.6511 69.3567 97.6201 68.6662C97.5878 67.9469 97.1545 67.606 96.3201 67.6435C95.8598 67.6642 95.2771 67.8489 94.572 68.1977C93.8957 68.5452 93.1147 69.128 92.2289 69.9462C91.122 70.976 89.9868 72.3388 88.8233 74.0343C88.6675 74.416 88.4913 74.9861 88.2947 75.7445C88.0968 76.4741 87.929 77.2312 87.7913 78.0158C87.6823 78.7991 87.6401 79.464 87.6647 80.0107C87.684 80.4422 87.7689 80.7267 87.9192 80.8641L85.2004 80.9862C84.8839 81.0004 84.7198 80.8781 84.7082 80.6191C84.7043 80.5328 84.7155 80.4602 84.7417 80.4014C84.7678 80.3426 84.7914 80.2262 84.8125 80.0523C85.1481 78.5381 85.5633 77.1933 86.0583 76.0179C86.582 74.8412 87.0115 73.8129 87.3468 72.933C87.0917 73.0309 86.9472 73.023 86.9133 72.9092C86.8781 72.7667 86.8585 72.6522 86.8546 72.5659C87.0354 72.0965 87.3333 71.348 87.7484 70.3203C88.191 69.2626 88.699 68.0578 89.2726 66.7059C89.8736 65.324 90.5151 63.8825 91.1973 62.3816C91.8794 60.8807 92.5642 59.4373 93.2515 58.0515C93.9375 56.6369 94.4978 55.6315 94.9323 55.0354C95.3955 54.4381 95.9724 54.1239 96.6629 54.0929C96.9219 54.0812 97.2259 54.1108 97.575 54.1816C97.9529 54.2511 98.2844 54.2507 98.5696 54.1802C97.9611 54.7553 97.2152 55.7978 96.3316 57.3078C95.4468 58.7889 94.5154 60.5173 93.5374 62.4927C92.5595 64.4682 91.6266 66.4849 90.7389 68.5428C90.477 69.1311 90.2308 69.7476 90.0003 70.3922C89.7698 71.0368 89.5536 71.6807 89.3519 72.324C89.9225 71.5488 90.5781 70.741 91.3188 69.9005C92.0594 69.0601 92.832 68.2902 93.6367 67.591C94.4688 66.8618 95.2949 66.3201 96.1151 65.9662C97.049 65.5783 97.8325 65.3701 98.4654 65.3417C99.1271 65.312 99.609 65.4489 99.9109 65.7525C100.242 66.0547 100.418 66.4504 100.44 66.9395C100.464 67.4862 100.278 68.1576 99.8817 68.9538C99.4837 69.7212 98.923 70.3951 98.1995 70.9753C97.5859 71.4353 96.941 71.839 96.2647 72.1865C95.5884 72.534 94.7775 72.7723 93.8319 72.9012C93.6774 73.3118 93.5666 73.7347 93.4997 74.1702C93.4603 74.5756 93.4496 74.9797 93.4677 75.3824C93.5181 76.5045 93.8216 77.4855 94.3782 78.3254C94.9336 79.1365 95.6284 79.5233 96.4628 79.4858C96.8656 79.4677 97.292 79.3332 97.742 79.0824C98.2207 78.8303 98.7068 78.4193 99.2001 77.8493C99.7497 77.2481 100.29 76.431 100.82 75.3982C101.349 74.3366 101.872 73.1599 102.391 71.8682C102.736 71.8527 102.915 71.9744 102.926 72.2333C102.003 74.7829 101.079 76.6839 100.155 77.9362C99.2314 79.1885 98.3169 80.0079 97.4117 80.3945C96.534 80.7511 95.6473 80.9062 94.7515 80.86Z" fill="black"/>
<path d="M114.132 79.0653C113.473 79.1338 112.866 79.0086 112.312 78.6897C111.786 78.3679 111.464 77.6341 111.345 76.4883C111.294 76.0013 111.275 75.54 111.288 75.1044C111.329 74.6658 111.382 74.197 111.446 73.6981C111.233 74.1546 110.93 74.7217 110.537 75.3996C110.144 76.0774 109.692 76.7469 109.182 77.4079C108.7 78.066 108.179 78.6269 107.62 79.0904C107.088 79.551 106.565 79.808 106.049 79.8616C105.304 79.939 104.669 79.6721 104.142 79.0608C103.612 78.421 103.291 77.5567 103.178 76.4682C103.056 75.2937 103.197 74.005 103.601 72.6021C104.006 71.1992 104.616 69.8328 105.434 68.5028C106.251 67.1728 107.235 66.0571 108.387 65.1557C109.538 64.2543 110.787 63.7337 112.134 63.5938C112.792 63.5253 113.435 63.5744 114.06 63.7411C114.682 63.8791 115.248 64.1678 115.757 64.6072C115.978 64.7869 116.102 65.0056 116.129 65.2634C116.147 65.4353 116.09 65.586 115.959 65.7154C115.828 65.8449 115.644 65.8929 115.409 65.8594C114.99 64.8895 114.265 64.4582 113.233 64.5653C112.746 64.6159 112.204 64.8315 111.607 65.2121C110.875 65.6935 110.111 66.4243 109.315 67.4046C108.545 68.3533 107.832 69.4264 107.174 70.6239C106.543 71.7898 106.041 72.9567 105.67 74.1245C105.299 75.2922 105.162 76.3345 105.257 77.2511C105.355 78.1964 105.762 78.6319 106.478 78.5575C107.109 78.492 107.722 78.1243 108.318 77.4543C108.943 76.7813 109.51 75.9695 110.02 75.019C110.555 74.0368 111.034 73.075 111.457 72.1334C111.881 71.1918 112.207 70.434 112.437 69.86C112.786 69.0419 113.121 68.3557 113.439 67.8014C113.758 67.247 114.261 66.9342 114.949 66.8627C115.264 66.83 115.583 66.8402 115.908 66.8934C116.232 66.9466 116.562 66.9267 116.9 66.8337C116.13 67.7824 115.477 68.8782 114.94 70.1211C114.432 71.3611 114.065 72.5718 113.841 73.7534C113.613 74.9063 113.539 75.8694 113.62 76.6429C113.709 77.5022 114.04 77.9022 114.613 77.8427C115.071 77.795 115.531 77.4866 115.993 76.9174C116.484 76.3453 116.933 75.6472 117.339 74.8231C117.772 73.9675 118.161 73.1163 118.507 72.2696C118.851 71.3942 119.12 70.6423 119.315 70.014C119.459 69.9991 119.575 70.0015 119.664 70.0212C119.781 70.038 119.85 70.1466 119.871 70.3471C119.855 70.4647 119.811 70.5995 119.74 70.7517C119.694 70.8722 119.616 71.0975 119.506 71.4275C119.324 71.9096 119.073 72.5582 118.752 73.3733C118.432 74.1885 118.041 75.0253 117.58 75.8839C117.116 76.7139 116.597 77.4338 116.024 78.0435C115.45 78.6533 114.819 78.9939 114.132 79.0653Z" fill="black"/>
<path d="M123.195 77.8867C122.029 78.069 121.02 77.8623 120.169 77.2665C119.342 76.6378 118.866 75.9251 118.742 75.1284C118.639 74.4739 118.717 73.8497 118.974 73.2557C119.198 72.6377 119.58 72.2865 120.121 72.202L120.15 72.11C120.598 70.874 121.016 69.6282 121.403 68.3726C121.814 67.0842 122.27 65.7157 122.773 64.2671C123.197 63.064 123.695 62.0535 124.267 61.2354C124.867 60.4129 125.636 59.9283 126.575 59.7816C126.803 59.746 127.125 59.754 127.541 59.8056C127.953 59.8287 128.183 59.9968 128.232 60.3098C128.268 60.5374 128.157 60.6712 127.901 60.7112C127.702 60.7424 127.465 60.721 127.192 60.6472C126.946 60.569 126.752 60.5409 126.61 60.5632C126.069 60.6476 125.663 61.0318 125.391 61.7156C125.119 62.3994 125.038 63.097 125.149 63.8083C125.27 64.5766 125.506 65.2538 125.86 65.8397C126.21 66.3973 126.6 66.9339 127.03 67.4497C127.461 67.9654 127.85 68.5021 128.2 69.0596C128.545 69.5887 128.771 70.1947 128.877 70.8776C129.091 72.2434 128.994 73.3954 128.587 74.3335C128.203 75.2387 127.618 75.9714 126.831 76.5316L126.874 76.525C128.382 76.2893 129.511 75.3988 130.261 73.8534C131.034 72.275 131.727 70.2721 132.339 67.8445C132.68 67.7912 132.871 67.8926 132.911 68.1487C132.57 69.5136 132.168 70.859 131.705 72.1848C131.242 73.5106 130.631 74.6408 129.874 75.5753C129.116 76.5099 128.097 77.0772 126.817 77.2772C126.276 77.3617 125.769 77.3826 125.296 77.3399C124.664 77.5844 123.964 77.7667 123.195 77.8867ZM121.848 73.4625C121.955 74.1454 122.214 74.7754 122.624 75.3525C123.035 75.9296 123.678 76.3102 124.552 76.4943C125.225 75.9518 125.692 75.2085 125.952 74.2641C126.237 73.2869 126.304 72.3145 126.152 71.3471C126.028 70.5503 125.816 69.7527 125.516 68.9542C125.217 68.1557 124.905 67.3736 124.581 66.608C124.286 65.838 124.09 65.1399 123.992 64.5139C123.961 64.3147 123.934 64.144 123.912 64.0017C123.913 63.8266 123.917 63.6656 123.924 63.5189C123.532 64.3672 123.145 65.3458 122.765 66.4546C122.412 67.559 122.068 68.6185 121.731 69.6331C121.394 70.6477 121.073 71.4849 120.768 72.1446C121.35 72.1411 121.71 72.5804 121.848 73.4625ZM120.773 75.8166C120.844 76.2719 121.063 76.6458 121.429 76.9384C121.796 77.2309 122.292 77.3283 122.918 77.2305C123.202 77.1861 123.468 77.1154 123.716 77.0184C123.06 76.7419 122.503 76.348 122.044 75.8367C121.614 75.3209 121.341 74.6931 121.225 73.9533C121.014 74.2779 120.875 74.6055 120.81 74.9363C120.741 75.2387 120.729 75.5321 120.773 75.8166Z" fill="black"/>
<path d="M136.296 75.6452C135.139 75.879 134.122 75.7171 133.245 75.1595C132.391 74.5681 131.885 73.8771 131.725 73.0867C131.594 72.4374 131.644 71.8104 131.874 71.2056C132.071 70.5783 132.437 70.2105 132.973 70.1021L132.999 70.0089C133.392 68.7543 133.754 67.4912 134.084 66.2198C134.438 64.9144 134.833 63.527 135.271 62.0577C135.642 60.837 136.094 59.8053 136.629 58.9628C137.193 58.1145 137.94 57.5963 138.872 57.4082C139.097 57.3625 139.419 57.3563 139.837 57.3894C140.25 57.3943 140.487 57.552 140.55 57.8625C140.596 58.0884 140.491 58.2269 140.237 58.2782C140.04 58.3181 139.802 58.3073 139.526 58.2457C139.277 58.1784 139.082 58.159 138.941 58.1875C138.405 58.2958 138.016 58.6975 137.774 59.3927C137.532 60.0879 137.483 60.7884 137.625 61.4941C137.779 62.2563 138.046 62.9223 138.426 63.4921C138.799 64.0336 139.213 64.5524 139.665 65.0486C140.118 65.5448 140.531 66.0637 140.905 66.6052C141.273 67.1185 141.526 67.7139 141.663 68.3914C141.936 69.7465 141.89 70.9016 141.525 71.8568C141.182 72.7781 140.63 73.536 139.869 74.1305L139.911 74.1219C141.407 73.8198 142.496 72.8801 143.176 71.303C143.879 69.692 144.483 67.6603 144.986 65.2081C145.325 65.1397 145.52 65.2325 145.571 65.4866C145.292 66.8653 144.95 68.2271 144.545 69.5721C144.141 70.9171 143.581 72.0732 142.866 73.0404C142.15 74.0076 141.157 74.6194 139.887 74.876C139.351 74.9843 138.845 75.0276 138.371 75.0059C137.75 75.2782 137.059 75.4913 136.296 75.6452ZM134.755 71.2849C134.892 71.9624 135.178 72.5804 135.614 73.1387C136.05 73.6971 136.709 74.0488 137.59 74.194C138.238 73.6224 138.672 72.8591 138.89 71.9041C139.131 70.9152 139.155 69.9409 138.961 68.9811C138.801 68.1906 138.554 67.4032 138.22 66.6187C137.885 65.8342 137.539 65.0667 137.182 64.3162C136.853 63.56 136.625 62.8713 136.5 62.2502C136.46 62.0526 136.426 61.8832 136.397 61.7421C136.391 61.567 136.388 61.4061 136.388 61.2592C136.034 62.124 135.691 63.1187 135.36 64.2434C135.057 65.3623 134.76 66.436 134.468 67.4645C134.176 68.493 133.893 69.3436 133.617 70.0162C134.199 69.9869 134.578 70.4098 134.755 71.2849ZM133.785 73.6844C133.876 74.136 134.111 74.4999 134.49 74.776C134.869 75.052 135.369 75.1273 135.99 75.0019C136.272 74.9449 136.535 74.8625 136.778 74.7547C136.111 74.5075 135.537 74.1386 135.056 73.6481C134.603 73.1519 134.302 72.5368 134.154 71.8028C133.957 72.1365 133.833 72.4699 133.783 72.8033C133.727 73.1084 133.728 73.4021 133.785 73.6844Z" fill="black"/>
<path d="M149.54 72.5777C148.505 72.8285 147.706 72.7108 147.143 72.2247C146.575 71.7105 146.195 71.0616 146.005 70.2778C145.904 69.858 145.844 69.4279 145.826 68.9877C145.83 68.5128 145.858 68.0764 145.909 67.6786L146.984 59.8177C147.014 59.5735 147.008 59.3674 146.968 59.1994C146.9 58.9195 146.772 58.6985 146.585 58.5365C146.391 58.3464 146.255 58.2162 146.179 58.1458L148.468 57.5027C148.881 57.373 149.189 57.3578 149.39 57.4571C149.613 57.5216 149.745 57.6379 149.786 57.8058C149.827 57.9738 149.803 58.3054 149.716 58.8007C149.599 59.5402 149.424 60.4715 149.192 61.5944C148.96 62.7173 148.735 63.8682 148.517 65.0471C148.327 66.2192 148.175 67.3077 148.063 68.3128C147.979 69.311 147.998 70.0621 148.12 70.5659C148.208 70.9298 148.366 71.2174 148.595 71.4286C148.852 71.6331 149.205 71.6811 149.653 71.5727C150.24 71.4304 150.76 71.0675 151.211 70.4841C151.684 69.8659 152.084 69.1319 152.412 68.2821C152.739 67.4324 153.011 66.5368 153.228 65.5954C153.472 64.6472 153.66 63.772 153.792 62.9696C154.128 62.8883 154.326 62.9736 154.387 63.2255C154.277 63.9931 154.106 64.8789 153.875 65.8831C153.644 66.8873 153.333 67.8664 152.942 68.8204C152.572 69.7398 152.101 70.55 151.53 71.2513C150.987 71.9458 150.324 72.3879 149.54 72.5777ZM149.139 54.5843C148.775 54.6724 148.42 54.6104 148.072 54.3983C147.752 54.1794 147.545 53.874 147.45 53.4821C147.335 53.0063 147.429 52.5389 147.733 52.0802C148.03 51.5934 148.416 51.2924 148.892 51.1772C149.284 51.0823 149.65 51.1269 149.991 51.3111C150.332 51.4952 150.55 51.7832 150.645 52.1751C150.767 52.6789 150.68 53.1742 150.383 53.661C150.086 54.1478 149.671 54.4555 149.139 54.5843Z" fill="black"/>
</svg>
