<svg width="174" height="174" viewBox="0 0 174 174" fill="none" xmlns="http://www.w3.org/2000/svg">
<path d="M81.6134 0.0289989C78.9358 0.0966656 76.2774 0.326249 73.6384 0.717749C69.7234 1.10925 65.8084 3.074 61.4947 5.0315C56.0065 7.3805 50.5109 9.73675 45.4142 10.1282C36.7867 12.8687 34.0462 16.791 31.6972 19.923C31.6972 20.3145 31.3057 20.706 31.3057 20.706C28.1664 26.9773 27.7749 33.2485 28.9494 39.5198C30.1239 43.442 31.6899 46.98 32.8644 50.5035C35.6194 57.9565 38.3599 65.0035 39.5344 73.2395C40.7162 75.5957 41.8834 78.7278 42.6664 81.867C44.6239 88.1383 46.5959 95.1925 52.4757 100.681L52.5192 100.659C52.6424 100.797 52.7367 100.949 52.8672 101.072L53.0194 101L52.8744 96.7658C57.5724 89.7043 64.2279 84.999 73.6384 83.0415C77.4084 82.244 81.4757 81.954 85.6952 82.1135C90.0877 82.2334 94.456 82.8068 98.7307 83.8245C109.316 86.565 117.544 92.0605 117.943 96.7658C118.139 99.3323 118.233 101.805 118.175 104.277C118.17 104.741 118.153 105.207 118.124 105.676L119.11 106.169C119.704 105.826 120.214 105.355 120.604 104.792L120.626 104.77L120.669 104.712C120.959 104.32 121.213 103.813 121.467 103.305C121.612 103.037 121.742 102.682 121.873 102.37C123.359 99.0205 124.497 94.0107 125.773 88.1383C126.165 86.1807 126.571 84.6075 126.955 83.0415C130.094 75.9873 134.401 69.716 138.714 63.829C145.769 54.0415 152.431 45.0153 151.648 34.4303C138.714 9.338 120.676 5.41575 111.266 3.45825C109.7 3.06675 108.924 3.06675 107.75 2.67525C98.0492 0.906249 89.6682 -0.195751 81.6134 0.0289989ZM118.175 104.277C118.215 101.899 118.137 99.5203 117.943 97.15C117.552 92.0532 109.316 86.565 98.3392 83.8245C94.1866 82.8642 89.9537 82.2914 85.6952 82.1135C81.9141 81.9893 78.1313 82.3006 74.4214 83.0415C65.4025 84.999 58.3554 89.7115 54.0417 96.7585L54.4114 107.133C59.2472 104.56 66.9757 100.797 77.1764 99.8833C77.6477 99.847 78.1624 99.847 78.6554 99.818C79.5037 99.7237 80.584 99.499 81.8744 99.499C93.5252 99.499 105.567 103.37 117.233 111.447C117.508 109.456 117.677 107.467 117.74 105.48L118.066 105.647C118.081 105.19 118.168 104.726 118.175 104.27V104.277ZM81.6062 0.420499C82.5052 0.391499 83.4477 0.492999 84.3539 0.500249C82.6864 0.485749 81.0262 0.524416 79.3732 0.616249C80.1199 0.572749 80.8594 0.442249 81.6062 0.420499ZM75.6902 0.942499C75.1392 1.00775 74.581 1.03675 74.0299 1.1165C68.1067 1.96475 61.1684 6.19875 54.0924 8.69275C56.6662 7.73575 59.2689 6.54675 61.8862 5.43025C65.8012 3.47275 70.1149 1.508 73.6384 1.1165C74.3199 1.015 75.0087 1.02225 75.6902 0.942499ZM74.0299 2.6825C75.2044 2.6825 76.7777 2.6825 77.9522 3.074C77.0721 2.87348 76.1624 2.83906 75.2697 2.9725C76.0521 3.03276 76.8228 3.1986 77.5607 3.4655C81.7657 10.7155 74.4722 41.7382 72.6379 62.5457C73.5976 69.1452 74.7168 75.7205 75.9947 82.2658C70.8979 69.3317 65.8012 46.5885 65.0109 28.9493C64.6194 21.895 65.0182 15.6165 66.5914 10.9185C68.1502 6.19875 70.5064 3.06675 74.0227 2.67525L74.0299 2.6825ZM96.7659 4.64C90.8934 19.9375 90.1104 48.9375 89.7189 57.9565C89.3274 61.8715 89.7189 70.499 90.1104 76.7702C90.1104 78.3363 90.5019 79.9023 90.5019 81.4755C90.5019 79.9023 90.1104 78.7277 90.1104 77.1618C86.9712 53.6427 83.0489 25.4185 96.7659 4.64ZM121.068 7.395C119.11 23.0695 110.882 30.5225 108.141 45.82C107.358 57.971 105.785 72.0795 105.393 84.2305C105.002 72.0795 105.393 59.1455 107.351 46.2043C109.308 32.8788 113.622 19.546 121.068 7.395ZM47.3354 11.9625C48.9525 11.9472 50.5122 12.5606 51.6854 13.6735L51.5839 13.6227C52.5482 14.2897 53.5124 15.138 54.4332 16.4067C52.9542 23.4248 56.2819 38.3888 54.7232 50.2643C55.2742 61.4873 55.2379 73.3193 60.8784 82.592C53.7734 71.6445 52.3524 57.6738 51.2939 44.631C50.4747 36.7285 49.8149 29.4278 47.9299 23.5843C46.8859 21.373 45.9797 19.4155 45.1459 17.6248C44.9719 17.3565 44.8269 17.052 44.6384 16.7983C43.927 16.0607 43.5093 15.0888 43.4639 14.065C43.4639 13.6735 43.8482 12.8905 44.2469 12.8905C44.6384 12.499 45.4142 12.4845 45.8057 12.093C46.3072 11.996 46.8248 11.9522 47.3354 11.9625ZM37.5624 16.4067C37.1274 16.5518 36.8954 16.704 36.5474 16.849C37.8307 16.6025 39.1719 17.0955 40.3174 19.1545C38.9544 25.6215 43.4784 43.5798 43.4204 56.1585C45.6897 69.5565 47.4079 84.071 54.8174 93.2423C46.1899 83.4475 42.6664 66.1998 39.9259 51.6925C37.5697 40.3245 35.6049 30.5225 31.6899 27.3905C31.2984 26.6075 30.9069 26.2088 30.9069 25.4258C30.9069 24.2513 30.9069 22.678 31.6899 21.112C29.6817 25.7085 28.7537 30.2978 29.0074 34.8943C28.7094 30.1464 29.6329 25.4014 31.6899 21.112C31.6899 20.7205 32.0814 20.7205 32.0814 20.329C32.1684 20.213 32.3062 20.0753 32.4004 19.9593C32.8224 19.2391 33.3786 18.6066 34.0389 18.096C34.4377 17.6538 34.7349 17.226 35.1917 16.7765C34.8074 17.1825 34.5537 17.574 34.2202 17.9728C34.4159 17.8423 34.5972 17.7045 34.8292 17.5958C35.1745 17.2152 35.5967 16.9123 36.068 16.7073C36.5392 16.5023 37.0486 16.3999 37.5624 16.4067ZM34.8292 17.5958C34.8002 17.6465 34.7712 17.6682 34.7422 17.7262L35.0104 17.5088L34.8292 17.5958ZM141.839 25.8173L141.803 25.926C142.078 25.8898 142.347 25.8028 142.622 25.8173C142.354 25.8028 142.071 25.8898 141.788 25.9623C135.532 45.1168 128.108 64.2712 120.684 83.4258L120.669 83.4475C120.038 86.8188 118.973 89.8565 116.754 92.075C119.893 88.5443 120.278 83.4403 120.669 77.169C121.061 71.2893 121.061 65.018 124.2 58.7395C124.2 58.3553 124.207 57.9783 124.584 57.5868L124.591 57.5723C125.295 55.013 126.056 52.577 126.89 50.1918C129.92 40.8393 135.155 27.2383 141.484 25.9768C141.6 25.9333 141.73 25.839 141.846 25.8173M60.7117 117.523L58.3627 118.306C59.5372 119.879 60.3202 121.061 61.1032 121.445C61.9395 121.931 62.8841 122.2 63.8509 122.228C64.2424 122.228 65.0182 122.228 65.4097 121.836L71.2967 119.879C71.6882 119.879 72.0797 119.487 72.4712 119.487C73.2542 119.487 73.6457 119.487 74.4287 119.879L76.3934 121.836L78.3509 121.445C77.5679 120.27 76.3934 119.103 75.6104 118.712C74.8274 118.32 74.0372 117.914 72.8627 117.914H72.0797L65.8012 120.27H64.6339C63.8437 120.27 63.068 120.27 62.6764 119.879C62.285 119.487 61.4947 118.704 60.7117 117.523ZM41.8907 121.445C39.9332 122.619 37.1854 124.584 33.2632 126.15C29.3409 127.716 26.2089 129.289 24.6357 130.855C23.0745 132.421 22.2939 133.99 22.2939 135.561C22.2939 136.344 22.6854 136.742 23.4684 137.134C23.8599 137.525 24.6502 137.525 25.0417 137.917C30.5094 140.29 35.8699 142.902 41.1077 145.747C41.8979 146.138 42.6809 146.929 43.0797 147.32C43.4712 147.712 43.8554 147.712 44.2469 147.712C45.0372 147.712 46.2044 147.327 46.9874 146.537C47.7704 145.754 48.1644 144.969 48.1692 144.181C48.1692 143.398 47.7704 143.014 46.9874 142.622C46.9874 142.622 43.8482 141.049 38.3599 138.7C35.4115 137.422 32.5361 135.982 29.7469 134.386C30.9214 132.429 33.2704 130.855 36.8012 129.289C40.7162 127.723 43.4712 126.15 44.6384 124.976C45.0299 124.584 45.0299 124.193 45.0299 123.801C44.9379 123.208 44.6644 122.659 44.2469 122.228C43.7085 121.742 43.0144 121.464 42.2894 121.445H41.8907ZM123.431 121.445C122.841 121.538 122.294 121.812 121.865 122.228C121.474 123.011 121.075 123.41 121.075 123.801V124.193C122.25 125.367 123.83 126.15 126.179 126.933C128.137 127.325 130.094 128.115 132.059 128.506C134.408 129.289 135.976 130.464 136.764 132.03V132.429C136.764 132.82 135.974 133.603 134.408 134.386C133.625 134.778 132.052 135.959 130.094 137.525C128.137 138.7 126.955 139.867 125.78 140.259C124.214 141.049 123.04 141.832 122.648 142.622C122.257 143.014 122.257 143.398 122.257 143.789C122.257 144.572 122.648 144.572 123.04 145.355C123.431 146.138 124.214 146.153 124.606 146.153C124.997 146.153 125.389 145.747 125.78 145.747C127.738 144.572 130.493 143.006 133.625 140.259C137.148 137.518 139.896 135.561 141.469 134.386C143.035 133.603 143.811 132.813 143.811 131.631C143.811 131.247 143.811 130.464 143.028 130.072C140.288 126.933 136.373 124.983 131.667 123.41C130.884 123.018 129.71 122.619 127.354 122.228C126.179 121.836 124.997 121.445 124.214 121.445H123.431ZM101.87 127.317C99.9124 127.317 98.3392 127.723 97.1647 128.898C95.5987 130.072 95.2072 132.03 95.5987 134.386C95.5987 136.344 96.3817 137.91 97.5562 139.483C98.7307 141.056 100.304 141.839 101.87 141.839C103.044 141.839 103.827 141.433 105.009 141.042C106.967 139.867 107.757 137.91 107.757 134.386C107.757 131.638 106.967 129.681 105.792 128.514C104.646 127.706 103.271 127.282 101.87 127.317ZM69.3319 127.716C67.3744 127.716 65.8084 128.115 64.6339 129.289C63.0607 130.464 62.6764 132.421 63.0679 134.778C63.0679 136.735 63.8437 138.301 65.0254 139.867C66.2072 141.433 67.7659 142.231 69.3319 142.231C70.5137 142.231 71.2967 141.825 72.4712 141.433C74.4287 140.259 75.2117 138.301 75.2117 134.778C75.2117 131.638 74.4287 129.681 73.2542 128.905C72.1104 128.099 70.7379 127.682 69.3392 127.716H69.3319ZM69.3319 132.429C70.5137 132.429 71.2967 133.212 71.2967 134.386C71.2967 135.561 70.1149 136.344 69.3392 136.344C68.1574 136.344 67.3817 135.561 67.3817 134.386C67.3817 133.212 68.1574 132.429 69.3392 132.429M101.094 132.82C102.269 132.82 103.059 133.596 103.059 134.778C103.059 135.561 102.269 136.735 101.101 136.735C99.9197 136.735 99.144 135.952 99.144 134.778C99.144 133.603 99.9124 132.82 101.094 132.82ZM81.5047 148.103L82.6792 150.452C83.0829 151.193 83.6128 151.858 84.2452 152.417C84.6367 152.808 85.4269 153.591 86.2027 153.591H86.9929C87.7759 153.591 88.1602 153.591 88.5517 153.2C88.9432 152.808 89.7407 152.808 90.1322 152.417L91.2994 151.242C91.6909 150.851 92.0825 150.452 92.0825 150.061C92.4739 149.669 92.4739 149.278 92.8654 148.886C92.8654 148.495 93.2569 148.103 93.2569 148.103C92.8654 148.886 92.0825 149.669 91.6909 150.452C90.908 150.844 90.5237 151.634 89.7334 151.634C88.9577 152.025 88.1674 152.025 87.3845 152.025C86.6014 152.025 85.8184 152.025 85.4269 151.634C84.6439 151.634 84.2452 151.242 83.8537 150.851L82.6792 149.669C82.2877 149.278 81.8962 148.495 81.5047 148.103ZM75.2262 155.556C66.9902 155.556 61.9007 166.533 50.1412 156.731C47.0092 175.943 70.1367 177.509 79.9387 169.273C86.6087 163.401 84.6367 155.165 75.2262 155.556ZM96.0047 155.556C86.6014 155.165 84.6367 163.401 91.3067 169.28C101.101 177.509 124.222 175.936 121.09 156.731C109.33 166.533 104.632 155.556 96.0047 155.556Z" fill="#2F363D"/>
</svg>
